<svg height="480pt" viewBox="0 -16 480 480" width="480pt" xmlns="http://www.w3.org/2000/svg"><path d="m168 320h-48c-4.417969 0-8 3.582031-8 8v48c0 4.417969 3.582031 8 8 8h48c4.417969 0 8-3.582031 8-8v-48c0-4.417969-3.582031-8-8-8zm-8 48h-32v-32h32zm0 0"/><path d="m439.304688 392.550781c-2.304688-11.925781-9.90625-22.160156-20.65625-27.816406 25.617187-9.148437 40.953124-35.386719 36.355468-62.199219s-27.800781-46.441406-55.003906-46.535156c-2.679688.019531-5.351562.234375-8 .640625v-37.328125l14.34375 14.34375c9.75 9.75 25.5625 9.75 35.3125 0s9.75-25.5625 0-35.3125l-49.65625-49.65625v-100.6875c8.835938 0 16-7.164062 16-16v-16c0-8.835938-7.164062-16-16-16h-80c-8.835938 0-16 7.164062-16 16v16c0 8.835938 7.164062 16 16 16v20.6875l-55.03125-55.03125c-9.371094-9.371094-24.566406-9.371094-33.9375 0l-184.6875 184.6875c-9.734375 9.757812-9.734375 25.554688 0 35.3125 9.878906 9.441406 25.433594 9.441406 35.3125 0l14.34375-14.34375v167.742188c-8.710938-10.105469-22.800781-13.714844-35.296875-9.039063-12.5 4.671875-20.761719 16.640625-20.703125 29.984375-17.671875 0-32 14.328125-32 32 0 4.417969 3.582031 8 8 8h464c4.417969 0 8-3.582031 8-8-.03125-23.679688-17.296875-43.8125-40.695312-47.449219zm.695312-80.550781c-.035156 18.085938-12.203125 33.898438-29.675781 38.566406-17.472657 4.667969-35.90625-2.972656-44.957031-18.628906-1.429688-2.476562-4.070313-4-6.925782-4h-11.203125l-13.597656-13.601562c-1.496094-1.492188-3.527344-2.332032-5.640625-2.335938h-16c-4.417969 0-8 3.582031-8 8v7.609375h-5.078125l-13.265625-13.265625c-1.5-1.5-3.535156-2.34375-5.65625-2.34375h-24c-2.121094 0-4.15625.84375-5.65625 2.34375l-13.65625 13.65625h-12.6875v-32h134.480469c2.855469-.003906 5.492187-1.527344 6.917969-4 9.070312-15.636719 27.5-23.246094 44.960937-18.566406 17.457031 4.683594 29.609375 20.492187 29.640625 38.566406zm-184-32h-32v-24h32zm-32 64h16c2.121094 0 4.15625-.84375 5.65625-2.34375l10.34375-10.34375v36.6875h-32zm130.097656-64h-82.097656v-32c0-4.417969-3.582031-8-8-8h-48c-4.417969 0-8 3.582031-8 8v128c0 4.417969 3.582031 8 8 8h48c4.417969 0 8-3.582031 8-8v-48h4.6875l13.265625 13.265625c1.5 1.5 3.535156 2.34375 5.65625 2.34375h16.390625c4.417969 0 8-3.582031 8-8v-7.609375h4.6875l13.601562 13.601562c1.5 1.5 3.535157 2.34375 5.65625 2.34375h10.109376c5.589843 7.964844 13.152343 14.34375 21.945312 18.511719v5.75c-10.035156 7.492188-15.964844 19.269531-16 31.792969v.800781c-15.675781 3.246094-27.914062 15.515625-31.121094 31.199219h-193.597656c-2.929688-17.148438-14.890625-31.378906-31.28125-37.214844v-186.785156h272v53.542969c-8.773438 4.15625-16.320312 10.515625-21.902344 18.457031zm-42.097656-264h80v16h-80zm16 32h48v84.6875l-48-48zm-265.65625 174.34375c-3.550781 3.390625-9.136719 3.390625-12.6875 0-3.488281-3.511719-3.488281-9.175781 0-12.6875l184.6875-184.679688c3.125-3.125 8.1875-3.125 11.3125 0l184.6875 184.679688c3.488281 3.511719 3.488281 9.175781 0 12.6875-3.550781 3.390625-9.136719 3.390625-12.6875 0l-160.6875-160.6875c-9.371094-9.371094-24.566406-9.371094-33.9375 0zm172-149.367188c3.125-3.125 8.1875-3.125 11.3125 0l119.03125 119.023438h-249.375zm-216.191406 359.023438c4.203125-7.234375 13.289062-9.984375 20.800781-6.296875 3.070313 1.515625 6.769531.910156 9.191406-1.511719 2.425781-2.421875 3.039063-6.117187 1.527344-9.191406-1.089844-2.171875-1.660156-4.570312-1.671875-7-.023438-7.800781 5.601562-14.472656 13.296875-15.769531 7.691406-1.296875 15.195313 3.167969 17.726563 10.546875 1.113281 3.359375 4.339843 5.554687 7.871093 5.359375.375.003906.746094-.039063 1.105469-.136719 14.585938.015625 27.320312 9.882812 30.984375 24zm327.199218 0c3.285157-9.453125 12.128907-15.847656 22.136719-16 .273438 0 1.078125.121094 1.351563.128906 2.535156.097656 4.96875-1.011718 6.554687-2.992187 1.589844-1.980469 2.144531-4.59375 1.492188-7.046875-.558594-1.984375-.855469-4.03125-.886719-6.089844 0-13.253906 10.746094-24 24-24s24 10.746094 24 24c0 4.417969 3.582031 8 8 8 14.585938.015625 27.320312 9.882812 30.984375 24zm0 0"/><path d="m408 336c13.253906 0 24-10.746094 24-24s-10.746094-24-24-24-24 10.746094-24 24 10.746094 24 24 24zm0-32c4.417969 0 8 3.582031 8 8s-3.582031 8-8 8-8-3.582031-8-8 3.582031-8 8-8zm0 0"/></svg>